<svg xmlns="http://www.w3.org/2000/svg" viewBox="0 0 1536 1024" width="1536" height="1024">
  <defs>
    <linearGradient id="bgGrad" x1="0" y1="0" x2="1" y2="1">
      <stop offset="0%" stop-color="#161225"/>
      <stop offset="100%" stop-color="#1b1727"/>
    </linearGradient>

    <linearGradient id="arcGrad" x1="180" y1="0" x2="1320" y2="0" gradientUnits="userSpaceOnUse">
      <stop offset="0%" stop-color="#22bdf2"/>
      <stop offset="45%" stop-color="#b9ef8f"/>
      <stop offset="72%" stop-color="#ffd84d"/>
      <stop offset="100%" stop-color="#f5a12d"/>
    </linearGradient>

    <filter id="softGlow" x="-50%" y="-50%" width="200%" height="200%">
      <feGaussianBlur stdDeviation="10" result="blur"/>
      <feMerge>
        <feMergeNode in="blur"/>
        <feMergeNode in="SourceGraphic"/>
      </feMerge>
    </filter>

    <style>
      .bg { fill: url(#bgGrad); }
      .txt { fill: #f3eee3; font-family: Arial, Helvetica, sans-serif; font-weight: 700; }
      .cat { fill: none; stroke: #f4c93c; stroke-width: 9; stroke-linecap: round; stroke-linejoin: round; }
    </style>
  </defs>

  <rect class="bg" x="0" y="0" width="1536" height="1024"/>

  <g opacity="0.06">
    <rect x="140" y="0" width="24" height="1024" fill="#ffffff"/>
    <rect x="360" y="0" width="18" height="1024" fill="#ffffff"/>
    <rect x="620" y="0" width="16" height="1024" fill="#ffffff"/>
    <rect x="910" y="0" width="20" height="1024" fill="#ffffff"/>
    <rect x="1240" y="0" width="16" height="1024" fill="#ffffff"/>
  </g>

  <text class="txt" x="622" y="442" font-size="86" text-anchor="middle">LUND</text>
  <text class="txt" x="618" y="560" font-size="128" text-anchor="middle">AI SAFETY</text>

  <g transform="translate(1008,264)">
    <path class="cat" d="M0 334V104L54 14L108 104V334"/>
    <path class="cat" d="M130 334V132L182 58L234 132V334"/>
    <path class="cat" d="M108 334L156 282L201 321V334"/>
    <path class="cat" d="M54 -14V14"/>
    <path class="cat" d="M38 0H70"/>
    <path class="cat" d="M182 36V58"/>
    <path class="cat" d="M166 46H198"/>
    <path class="cat" d="M30 142V189"/>
    <path class="cat" d="M63 142V189"/>
    <path class="cat" d="M160 164V208"/>
    <path class="cat" d="M192 164V208"/>
    <path class="cat" d="M144 270V334"/>
  </g>

  <path d="M194 709C456 595 915 584 1320 696" stroke="url(#arcGrad)" stroke-width="8" fill="none" stroke-linecap="round"/>
  <path d="M224 722C512 626 935 618 1283 709" stroke="url(#arcGrad)" stroke-width="4.8" fill="none" stroke-linecap="round" opacity="0.96"/>

  <g filter="url(#softGlow)">
    <circle cx="770" cy="616" r="14" fill="#fff5a6" opacity="0.55"/>
    <circle cx="770" cy="616" r="9.5" fill="#f8f2b7"/>
  </g>
  <circle cx="770" cy="616" r="12" fill="#f4efb9"/>

  <g filter="url(#softGlow)">
    <circle cx="1213" cy="655" r="10" fill="#ffd07a" opacity="0.4"/>
  </g>
  <circle cx="1213" cy="655" r="8" fill="#f1af45"/>
</svg>
