<svg xmlns="http://www.w3.org/2000/svg" viewBox="0 0 1024 1024" width="1024" height="1024">
  <defs>
    <linearGradient id="bgGrad" x1="0" y1="0" x2="1" y2="1">
      <stop offset="0%" stop-color="#161225"/>
      <stop offset="100%" stop-color="#1b1727"/>
    </linearGradient>

    <linearGradient id="arcGrad" x1="44" y1="0" x2="980" y2="0" gradientUnits="userSpaceOnUse">
      <stop offset="0%" stop-color="#22bdf2"/>
      <stop offset="45%" stop-color="#b9ef8f"/>
      <stop offset="72%" stop-color="#ffd84d"/>
      <stop offset="100%" stop-color="#f5a12d"/>
    </linearGradient>

    <filter id="softGlow" x="-50%" y="-50%" width="200%" height="200%">
      <feGaussianBlur stdDeviation="8" result="blur"/>
      <feMerge>
        <feMergeNode in="blur"/>
        <feMergeNode in="SourceGraphic"/>
      </feMerge>
    </filter>

    <style>
      .bg { fill: url(#bgGrad); }
      .txt { fill: #f3eee3; font-family: Arial, Helvetica, sans-serif; font-weight: 700; }
      .cat { fill: none; stroke: #f4c93c; stroke-width: 8; stroke-linecap: round; stroke-linejoin: round; }
    </style>
  </defs>

  <rect class="bg" x="0" y="0" width="1024" height="1024"/>

  <g opacity="0.06">
    <rect x="120" y="0" width="20" height="1024" fill="#ffffff"/>
    <rect x="300" y="0" width="16" height="1024" fill="#ffffff"/>
    <rect x="470" y="0" width="14" height="1024" fill="#ffffff"/>
    <rect x="710" y="0" width="18" height="1024" fill="#ffffff"/>
    <rect x="890" y="0" width="14" height="1024" fill="#ffffff"/>
  </g>

  <text class="txt" x="318" y="422" font-size="72" text-anchor="middle">LUND</text>
  <text class="txt" x="320" y="520" font-size="104" text-anchor="middle">AI SAFETY</text>

  <g transform="translate(704,302)">
    <path class="cat" d="M0 266V85L44 12L88 85V266"/>
    <path class="cat" d="M108 266V112L150 52L192 112V266"/>
    <path class="cat" d="M88 266L127 223L162 252V266"/>
    <path class="cat" d="M44 -10V12"/>
    <path class="cat" d="M31 1H57"/>
    <path class="cat" d="M150 34V52"/>
    <path class="cat" d="M137 43H163"/>
    <path class="cat" d="M25 114V151"/>
    <path class="cat" d="M52 114V151"/>
    <path class="cat" d="M132 130V164"/>
    <path class="cat" d="M158 130V164"/>
    <path class="cat" d="M112 213V266"/>
  </g>

  <path d="M44 681C264 572 599 554 959 660" stroke="url(#arcGrad)" stroke-width="8" fill="none" stroke-linecap="round"/>
  <path d="M74 693C309 605 626 594 914 669" stroke="url(#arcGrad)" stroke-width="4.5" fill="none" stroke-linecap="round" opacity="0.95"/>

  <g filter="url(#softGlow)">
    <circle cx="523" cy="586" r="11" fill="#fff5a6" opacity="0.55"/>
    <circle cx="523" cy="586" r="7.5" fill="#f8f2b7"/>
  </g>
  <circle cx="523" cy="586" r="10" fill="#f4efb9"/>

  <g filter="url(#softGlow)">
    <circle cx="863" cy="615" r="8.5" fill="#ffd07a" opacity="0.4"/>
  </g>
  <circle cx="863" cy="615" r="7" fill="#f1af45"/>
</svg>
